<svg xmlns="http://www.w3.org/2000/svg" xmlns:xlink="http://www.w3.org/1999/xlink"><defs><linearGradient id="gradientHorizontal"><stop offset="-.25" stop-color="#fc66a2"/><stop offset="1.25" stop-color="#f78e6a"/></linearGradient><linearGradient id="gradientVertical" x2="0%" y2="100%"><stop offset="-.25" stop-color="#fc66a2"/><stop offset="1.25" stop-color="#f78e6a"/></linearGradient><linearGradient id="gradientVerticalInverse" y1="100%" x2="0%"><stop offset="-.25" stop-color="#fc66a2"/><stop offset="1.25" stop-color="#f78e6a"/></linearGradient></defs><symbol id="icon-arrow"><path d="M479.046 283.925c-1.664-3.989-5.547-6.592-9.856-6.592H352.305V10.667C352.305 4.779 347.526 0 341.638 0H170.971c-5.888 0-10.667 4.779-10.667 10.667v266.667H42.971a10.702 10.702 0 00-9.856 6.571c-1.643 3.989-.747 8.576 2.304 11.627l212.8 213.504c2.005 2.005 4.715 3.136 7.552 3.136s5.547-1.131 7.552-3.115l213.419-213.504a10.645 10.645 0 002.304-11.628z"/></symbol><symbol id="icon-gradient"/><symbol id="icon-plus"><g fill-rule="evenodd"><path d="M16.677 7.51v1.666H.011V7.51h16.666z"/><path d="M7.511.01h1.667v16.666H7.511V.01z"/></g></symbol><symbol id="icon-triangle"><path d="M3 6.011L0-.009h6.011z" fill-rule="evenodd"/></symbol></svg>